<svg
  width="1396"
  height="167"
  viewBox="0 0 1396 167"
  fill="none"
  xmlns="http://www.w3.org/2000/svg"
>
  <g filter="url(#filter0_di_16980_3304)">
    <rect
      x="478"
      y="-7.57666"
      width="48"
      height="48"
      rx="8"
      transform="rotate(-15 478 -7.57666)"
      fill="white"
    />
  </g>
  <path
    d="M510.975 14.2303L507.336 15.2053L504.324 3.96546L508.078 2.9596C509.18 2.66451 510.186 2.6361 511.096 2.87437C512.006 3.10898 512.784 3.58885 513.429 4.31398C514.077 5.03446 514.558 5.97828 514.87 7.14544C515.184 8.31626 515.24 9.37979 515.037 10.336C514.838 11.2913 514.397 12.1036 513.714 12.773C513.029 13.4387 512.116 13.9245 510.975 14.2303ZM508.635 13.2691L510.484 12.7735C511.34 12.5441 512.009 12.1924 512.49 11.7185C512.97 11.2409 513.268 10.657 513.385 9.96687C513.501 9.27305 513.44 8.48159 513.202 7.5925C512.966 6.71072 512.624 6.00024 512.178 5.46105C511.735 4.92088 511.195 4.56565 510.557 4.39537C509.919 4.22509 509.191 4.24975 508.371 4.46936L506.417 4.99288L508.635 13.2691Z"
    fill="#CD5BC6"
    fill-opacity="0.6"
  />
  <g filter="url(#filter1_di_16980_3304)">
    <rect
      x="98"
      y="92.4233"
      width="48"
      height="48"
      rx="8"
      transform="rotate(-15 98 92.4233)"
      fill="white"
    />
  </g>
  <path
    d="M127.56 115.145L121.431 104.741L123.214 104.263L127.737 112.38L127.841 112.352L127.786 103.038L129.553 102.564L134.165 110.664L134.269 110.636L134.12 101.341L135.909 100.861L135.798 112.938L134.091 113.395L129.47 105.61L129.382 105.634L129.272 114.687L127.56 115.145Z"
    fill="#CD5BC6"
    fill-opacity="0.6"
  />
  <g filter="url(#filter2_di_16980_3304)">
    <rect
      x="1027"
      y="-7.57666"
      width="48"
      height="48"
      rx="8"
      transform="rotate(-15 1027 -7.57666)"
      fill="white"
    />
  </g>
  <path
    d="M1049.16 16.738C1048.34 16.9566 1047.59 16.9601 1046.9 16.7484C1046.22 16.532 1045.63 16.1385 1045.14 15.5679C1044.65 14.9973 1044.29 14.2894 1044.07 13.4442C1043.84 12.5881 1043.79 11.7894 1043.94 11.0482C1044.09 10.3033 1044.4 9.6677 1044.89 9.1413C1045.38 8.6149 1046.02 8.24533 1046.81 8.03259C1047.45 7.86103 1048.05 7.827 1048.62 7.93051C1049.18 8.03036 1049.67 8.25132 1050.1 8.59339C1050.52 8.93448 1050.84 9.38074 1051.05 9.93217L1049.45 10.3601C1049.26 9.98848 1048.96 9.70214 1048.57 9.50106C1048.19 9.29901 1047.73 9.26807 1047.21 9.40827C1046.75 9.53081 1046.38 9.75891 1046.1 10.0925C1045.83 10.4215 1045.65 10.8329 1045.58 11.3266C1045.51 11.8166 1045.55 12.3617 1045.71 12.9617C1045.88 13.5764 1046.11 14.0819 1046.42 14.4783C1046.73 14.8747 1047.08 15.1498 1047.49 15.3038C1047.9 15.4568 1048.33 15.471 1048.8 15.3465C1049.11 15.2632 1049.38 15.131 1049.6 14.9499C1049.82 14.7642 1049.99 14.5404 1050.11 14.2784C1050.22 14.0155 1050.28 13.7229 1050.27 13.4006L1051.86 12.9726C1051.95 13.5335 1051.9 14.0677 1051.72 14.5752C1051.54 15.0826 1051.23 15.5256 1050.8 15.9041C1050.37 16.2816 1049.83 16.5595 1049.16 16.738ZM1056.01 5.68541L1056.36 7.00258L1051.76 8.23639L1051.4 6.91921L1056.01 5.68541ZM1052.1 4.56867L1053.74 4.12898L1055.88 12.1034C1055.96 12.4217 1056.07 12.6486 1056.21 12.7841C1056.35 12.9159 1056.5 12.991 1056.66 13.0094C1056.83 13.0231 1057.01 13.0059 1057.19 12.9579C1057.32 12.9226 1057.43 12.8825 1057.52 12.8378C1057.62 12.793 1057.69 12.7578 1057.74 12.7321L1058.4 14.0083C1058.32 14.0704 1058.19 14.1432 1058.03 14.2269C1057.86 14.3142 1057.65 14.3949 1057.39 14.4692C1056.96 14.5922 1056.53 14.6232 1056.12 14.5622C1055.7 14.5012 1055.33 14.3333 1055.01 14.0585C1054.69 13.7836 1054.46 13.3919 1054.33 12.8833L1052.1 4.56867ZM1060.08 13.6289L1057.82 5.19902L1059.41 4.77403L1059.77 6.11316L1059.86 6.08963C1059.89 5.59476 1060.06 5.16548 1060.38 4.80178C1060.7 4.43345 1061.11 4.1831 1061.6 4.05075C1061.71 4.0233 1061.83 3.99461 1061.97 3.96467C1062.11 3.93376 1062.23 3.913 1062.31 3.90241L1062.73 5.47204C1062.66 5.47139 1062.54 5.48264 1062.36 5.50578C1062.19 5.52527 1062.02 5.55756 1061.85 5.60266C1061.46 5.70658 1061.14 5.88155 1060.88 6.12756C1060.62 6.36894 1060.44 6.65768 1060.35 6.99379C1060.25 7.32623 1060.25 7.6754 1060.34 8.04128L1061.72 13.1892L1060.08 13.6289ZM1064.64 0.360048L1067.65 11.5999L1066.01 12.0396L1063 0.799747L1064.64 0.360048Z"
    fill="#CD5BC6"
    fill-opacity="0.6"
  />
  <g filter="url(#filter3_di_16980_3304)">
    <rect
      x="244.423"
      y="-9"
      width="48"
      height="48"
      rx="8"
      transform="rotate(15 244.423 -9)"
      fill="white"
    />
  </g>
  <path
    d="M257.57 24.4361L255.77 23.9537L262.827 13.7977L264.786 14.3227L265.819 26.6463L264.019 26.164L263.306 16.1143L263.218 16.0908L257.57 24.4361ZM259.051 20.1154L264.891 21.6801L264.509 23.107L258.669 21.5424L259.051 20.1154Z"
    fill="#CD5BC6"
    fill-opacity="0.6"
  />
  <g filter="url(#filter4_di_16980_3304)">
    <rect
      x="359.423"
      y="57"
      width="48"
      height="48"
      rx="8"
      transform="rotate(15 359.423 57)"
      fill="white"
    />
  </g>
  <path
    d="M380.961 83.2662C381.041 82.7309 380.908 82.2638 380.56 81.8646C380.213 81.4619 379.717 81.1742 379.073 81.0017C378.612 80.8781 378.194 80.8445 377.818 80.9006C377.443 80.9531 377.129 81.0806 376.874 81.2831C376.625 81.4828 376.457 81.7419 376.372 82.0602C376.3 82.3273 376.301 82.5745 376.373 82.8017C376.449 83.0299 376.572 83.2374 376.742 83.424C376.916 83.6079 377.11 83.7757 377.325 83.9272C377.54 84.0751 377.75 84.2059 377.955 84.3196L378.976 84.8991C379.311 85.083 379.647 85.3004 379.983 85.5514C380.32 85.8024 380.617 86.0936 380.873 86.425C381.129 86.7564 381.308 87.1297 381.408 87.5449C381.512 87.961 381.497 88.4215 381.361 88.9264C381.191 89.5631 380.875 90.0842 380.413 90.49C379.955 90.8966 379.377 91.1593 378.678 91.2781C377.984 91.3978 377.197 91.34 376.319 91.1047C375.478 90.8792 374.785 90.5506 374.242 90.1188C373.699 89.687 373.319 89.1794 373.103 88.5959C372.888 88.0089 372.853 87.372 372.997 86.6853L374.699 87.1412C374.623 87.5561 374.664 87.9299 374.822 88.2624C374.984 88.5922 375.229 88.8715 375.556 89.1003C375.888 89.3264 376.271 89.4978 376.707 89.6144C377.186 89.7429 377.632 89.7821 378.046 89.7321C378.464 89.6794 378.817 89.5466 379.105 89.3337C379.395 89.1171 379.588 88.8259 379.686 88.46C379.776 88.127 379.754 87.829 379.62 87.5658C379.49 87.3036 379.283 87.0598 378.999 86.8345C378.717 86.6102 378.39 86.391 378.016 86.1771L376.785 85.459C375.95 84.9727 375.333 84.4211 374.934 83.8043C374.538 83.1885 374.445 82.489 374.655 81.7061C374.829 81.0584 375.156 80.5402 375.636 80.1514C376.117 79.7625 376.693 79.5149 377.365 79.4086C378.037 79.2987 378.751 79.3447 379.504 79.5466C380.265 79.7505 380.901 80.064 381.411 80.487C381.925 80.9109 382.287 81.4021 382.499 81.9607C382.711 82.5155 382.743 83.0968 382.596 83.7044L380.961 83.2662Z"
    fill="#CD5BC6"
    fill-opacity="0.6"
  />
  <g filter="url(#filter5_di_16980_3304)">
    <rect
      x="1124.42"
      y="98"
      width="48"
      height="48"
      rx="8"
      transform="rotate(15 1124.42 98)"
      fill="white"
    />
  </g>
  <path
    d="M1134.36 130.843L1134.66 129.712L1142.89 122.647L1136.93 121.05L1137.32 119.59L1145.35 121.743L1145.05 122.873L1136.82 129.939L1142.78 131.536L1142.39 132.996L1134.36 130.843Z"
    fill="#CD5BC6"
    fill-opacity="0.6"
  />
  <g filter="url(#filter6_di_16980_3304)">
    <rect
      x="1221.42"
      y="21"
      width="48"
      height="48"
      rx="8"
      transform="rotate(15 1221.42 21)"
      fill="white"
    />
  </g>
  <path
    d="M1242.75 48.7668L1241.04 48.308C1241.07 47.9245 1241.03 47.5696 1240.93 47.2435C1240.83 46.9174 1240.67 46.6226 1240.46 46.3591C1240.25 46.0956 1240 45.8713 1239.71 45.6862C1239.41 45.5021 1239.09 45.3621 1238.73 45.266C1238.08 45.0925 1237.46 45.0999 1236.86 45.2883C1236.26 45.4776 1235.73 45.8473 1235.27 46.3972C1234.81 46.948 1234.45 47.6772 1234.21 48.5846C1233.97 49.4993 1233.91 50.3105 1234.03 51.0182C1234.16 51.727 1234.43 52.3109 1234.86 52.7702C1235.29 53.2294 1235.82 53.5448 1236.46 53.7164C1236.82 53.8115 1237.16 53.8541 1237.51 53.8442C1237.86 53.8317 1238.19 53.7652 1238.5 53.6445C1238.81 53.5238 1239.09 53.3503 1239.34 53.124C1239.6 52.8949 1239.81 52.6104 1239.98 52.2705L1241.69 52.7348C1241.45 53.2628 1241.13 53.7238 1240.75 54.1179C1240.36 54.5093 1239.92 54.8184 1239.42 55.0452C1238.93 55.2693 1238.39 55.4028 1237.82 55.4455C1237.25 55.4882 1236.65 55.4268 1236.03 55.2611C1235.06 55.0003 1234.26 54.5375 1233.62 53.8725C1232.98 53.2039 1232.56 52.3791 1232.35 51.398C1232.15 50.4178 1232.21 49.3295 1232.53 48.1331C1232.85 46.933 1233.34 45.9619 1234.01 45.2197C1234.68 44.4739 1235.46 43.9724 1236.35 43.7153C1237.23 43.4546 1238.16 43.4541 1239.13 43.7139C1239.72 43.8737 1240.26 44.1087 1240.73 44.4189C1241.2 44.7264 1241.6 45.1002 1241.93 45.5403C1242.25 45.9767 1242.49 46.4672 1242.63 47.0117C1242.78 47.5526 1242.82 48.1376 1242.75 48.7668Z"
    fill="#CD5BC6"
    fill-opacity="0.6"
  />
  <g filter="url(#filter7_di_16980_3304)">
    <rect
      x="871.423"
      y="-3"
      width="48"
      height="48"
      rx="8"
      transform="rotate(15 871.423 -3)"
      fill="white"
    />
  </g>
  <path
    d="M883.683 18.6875L884.359 28.68L884.485 28.7139L890.066 20.3977L891.899 20.8889L884.843 31.045L882.883 30.52L881.85 18.1963L883.683 18.6875Z"
    fill="#CD5BC6"
    fill-opacity="0.6"
  />
  <g filter="url(#filter8_di_16980_3304)">
    <rect
      x="1171.18"
      y="-7"
      width="20"
      height="20"
      rx="4"
      transform="rotate(15 1171.18 -7)"
      fill="white"
    />
  </g>
  <g filter="url(#filter9_di_16980_3304)">
    <rect
      x="270.176"
      y="107"
      width="20"
      height="20"
      rx="4"
      transform="rotate(15 270.176 107)"
      fill="white"
    />
  </g>
  <g filter="url(#filter10_di_16980_3304)">
    <rect
      x="1361"
      y="49.1764"
      width="20"
      height="20"
      rx="4"
      transform="rotate(-15 1361 49.1764)"
      fill="white"
    />
  </g>
  <g filter="url(#filter11_di_16980_3304)">
    <rect
      x="122"
      y="19.1764"
      width="20"
      height="20"
      rx="4"
      transform="rotate(-15 122 19.1764)"
      fill="white"
    />
  </g>
  <g filter="url(#filter12_di_16980_3304)">
    <rect
      x="4"
      y="75.1764"
      width="20"
      height="20"
      rx="4"
      transform="rotate(-15 4 75.1764)"
      fill="white"
    />
  </g>
  <g filter="url(#filter13_di_16980_3304)">
    <rect
      x="401"
      y="-2.82361"
      width="20"
      height="20"
      rx="4"
      transform="rotate(-15 401 -2.82361)"
      fill="white"
    />
  </g>
  <g filter="url(#filter14_di_16980_3304)">
    <rect
      x="977"
      y="89.1764"
      width="20"
      height="20"
      rx="4"
      transform="rotate(-15 977 89.1764)"
      fill="white"
    />
  </g>
  <g filter="url(#filter15_f_16980_3304)">
    <rect
      x="43"
      y="30.0706"
      width="8"
      height="8"
      rx="1"
      transform="rotate(-15 43 30.0706)"
      fill="white"
      fill-opacity="0.5"
    />
  </g>
  <g filter="url(#filter16_f_16980_3304)">
    <rect
      x="199"
      y="75.0706"
      width="8"
      height="8"
      rx="1"
      transform="rotate(-15 199 75.0706)"
      fill="white"
      fill-opacity="0.5"
    />
  </g>
  <g filter="url(#filter17_f_16980_3304)">
    <rect
      x="355"
      y="20.0706"
      width="8"
      height="8"
      rx="1"
      transform="rotate(-15 355 20.0706)"
      fill="white"
      fill-opacity="0.5"
    />
  </g>
  <g filter="url(#filter18_f_16980_3304)">
    <rect
      x="498"
      y="83.0706"
      width="8"
      height="8"
      rx="1"
      transform="rotate(-15 498 83.0706)"
      fill="white"
      fill-opacity="0.5"
    />
  </g>
  <g filter="url(#filter19_f_16980_3304)">
    <rect
      x="628"
      y="15.0706"
      width="8"
      height="8"
      rx="1"
      transform="rotate(-15 628 15.0706)"
      fill="white"
      fill-opacity="0.5"
    />
  </g>
  <g filter="url(#filter20_f_16980_3304)">
    <rect
      x="892"
      y="99.0706"
      width="8"
      height="8"
      rx="1"
      transform="rotate(-15 892 99.0706)"
      fill="white"
      fill-opacity="0.5"
    />
  </g>
  <g filter="url(#filter21_f_16980_3304)">
    <rect
      x="810"
      y="33.0706"
      width="8"
      height="8"
      rx="1"
      transform="rotate(-15 810 33.0706)"
      fill="white"
      fill-opacity="0.5"
    />
  </g>
  <g filter="url(#filter22_f_16980_3304)">
    <rect
      x="969"
      y="19.0706"
      width="8"
      height="8"
      rx="1"
      transform="rotate(-15 969 19.0706)"
      fill="white"
      fill-opacity="0.5"
    />
  </g>
  <g filter="url(#filter23_f_16980_3304)">
    <rect
      x="1076"
      y="110.071"
      width="8"
      height="8"
      rx="1"
      transform="rotate(-15 1076 110.071)"
      fill="white"
      fill-opacity="0.5"
    />
  </g>
  <g filter="url(#filter24_f_16980_3304)">
    <rect
      x="1146"
      y="33.0706"
      width="8"
      height="8"
      rx="1"
      transform="rotate(-15 1146 33.0706)"
      fill="white"
      fill-opacity="0.5"
    />
  </g>
  <g filter="url(#filter25_f_16980_3304)">
    <rect
      x="1235"
      y="117.071"
      width="8"
      height="8"
      rx="1"
      transform="rotate(-15 1235 117.071)"
      fill="white"
      fill-opacity="0.5"
    />
  </g>
  <g filter="url(#filter26_f_16980_3304)">
    <rect
      x="1321"
      y="27.0706"
      width="8"
      height="8"
      rx="1"
      transform="rotate(-15 1321 27.0706)"
      fill="white"
      fill-opacity="0.5"
    />
  </g>
  <g filter="url(#filter27_f_16980_3304)">
    <rect
      x="1385"
      y="102.071"
      width="8"
      height="8"
      rx="1"
      transform="rotate(-15 1385 102.071)"
      fill="white"
      fill-opacity="0.5"
    />
  </g>
  <defs>
    <filter
      id="filter0_di_16980_3304"
      x="471.796"
      y="-22.204"
      width="71.1958"
      height="71.1958"
      filterUnits="userSpaceOnUse"
      color-interpolation-filters="sRGB"
    >
      <feFlood flood-opacity="0" result="BackgroundImageFix" />
      <feColorMatrix
        in="SourceAlpha"
        type="matrix"
        values="0 0 0 0 0 0 0 0 0 0 0 0 0 0 0 0 0 0 127 0"
        result="hardAlpha"
      />
      <feOffset dy="4" />
      <feGaussianBlur stdDeviation="4" />
      <feComposite in2="hardAlpha" operator="out" />
      <feColorMatrix
        type="matrix"
        values="0 0 0 0 0.890196 0 0 0 0 0.756863 0 0 0 0 0.847059 0 0 0 0.6 0"
      />
      <feBlend
        mode="normal"
        in2="BackgroundImageFix"
        result="effect1_dropShadow_16980_3304"
      />
      <feBlend
        mode="normal"
        in="SourceGraphic"
        in2="effect1_dropShadow_16980_3304"
        result="shape"
      />
      <feColorMatrix
        in="SourceAlpha"
        type="matrix"
        values="0 0 0 0 0 0 0 0 0 0 0 0 0 0 0 0 0 0 127 0"
        result="hardAlpha"
      />
      <feOffset dx="4" dy="-4" />
      <feGaussianBlur stdDeviation="2" />
      <feComposite in2="hardAlpha" operator="arithmetic" k2="-1" k3="1" />
      <feColorMatrix
        type="matrix"
        values="0 0 0 0 0.976471 0 0 0 0 0.92549 0 0 0 0 0.992157 0 0 0 1 0"
      />
      <feBlend
        mode="normal"
        in2="shape"
        result="effect2_innerShadow_16980_3304"
      />
    </filter>
    <filter
      id="filter1_di_16980_3304"
      x="91.7959"
      y="77.796"
      width="71.1958"
      height="71.1958"
      filterUnits="userSpaceOnUse"
      color-interpolation-filters="sRGB"
    >
      <feFlood flood-opacity="0" result="BackgroundImageFix" />
      <feColorMatrix
        in="SourceAlpha"
        type="matrix"
        values="0 0 0 0 0 0 0 0 0 0 0 0 0 0 0 0 0 0 127 0"
        result="hardAlpha"
      />
      <feOffset dy="4" />
      <feGaussianBlur stdDeviation="4" />
      <feComposite in2="hardAlpha" operator="out" />
      <feColorMatrix
        type="matrix"
        values="0 0 0 0 0.890196 0 0 0 0 0.756863 0 0 0 0 0.847059 0 0 0 0.6 0"
      />
      <feBlend
        mode="normal"
        in2="BackgroundImageFix"
        result="effect1_dropShadow_16980_3304"
      />
      <feBlend
        mode="normal"
        in="SourceGraphic"
        in2="effect1_dropShadow_16980_3304"
        result="shape"
      />
      <feColorMatrix
        in="SourceAlpha"
        type="matrix"
        values="0 0 0 0 0 0 0 0 0 0 0 0 0 0 0 0 0 0 127 0"
        result="hardAlpha"
      />
      <feOffset dx="4" dy="-4" />
      <feGaussianBlur stdDeviation="2" />
      <feComposite in2="hardAlpha" operator="arithmetic" k2="-1" k3="1" />
      <feColorMatrix
        type="matrix"
        values="0 0 0 0 0.976471 0 0 0 0 0.92549 0 0 0 0 0.992157 0 0 0 1 0"
      />
      <feBlend
        mode="normal"
        in2="shape"
        result="effect2_innerShadow_16980_3304"
      />
    </filter>
    <filter
      id="filter2_di_16980_3304"
      x="1020.8"
      y="-22.204"
      width="71.1958"
      height="71.1958"
      filterUnits="userSpaceOnUse"
      color-interpolation-filters="sRGB"
    >
      <feFlood flood-opacity="0" result="BackgroundImageFix" />
      <feColorMatrix
        in="SourceAlpha"
        type="matrix"
        values="0 0 0 0 0 0 0 0 0 0 0 0 0 0 0 0 0 0 127 0"
        result="hardAlpha"
      />
      <feOffset dy="4" />
      <feGaussianBlur stdDeviation="4" />
      <feComposite in2="hardAlpha" operator="out" />
      <feColorMatrix
        type="matrix"
        values="0 0 0 0 0.890674 0 0 0 0 0.758406 0 0 0 0 0.848789 0 0 0 0.6 0"
      />
      <feBlend
        mode="normal"
        in2="BackgroundImageFix"
        result="effect1_dropShadow_16980_3304"
      />
      <feBlend
        mode="normal"
        in="SourceGraphic"
        in2="effect1_dropShadow_16980_3304"
        result="shape"
      />
      <feColorMatrix
        in="SourceAlpha"
        type="matrix"
        values="0 0 0 0 0 0 0 0 0 0 0 0 0 0 0 0 0 0 127 0"
        result="hardAlpha"
      />
      <feOffset dx="-4" dy="-4" />
      <feGaussianBlur stdDeviation="2" />
      <feComposite in2="hardAlpha" operator="arithmetic" k2="-1" k3="1" />
      <feColorMatrix
        type="matrix"
        values="0 0 0 0 0.976471 0 0 0 0 0.92549 0 0 0 0 0.992157 0 0 0 1 0"
      />
      <feBlend
        mode="normal"
        in2="shape"
        result="effect2_innerShadow_16980_3304"
      />
    </filter>
    <filter
      id="filter3_di_16980_3304"
      x="225.796"
      y="-11.204"
      width="71.1958"
      height="71.1958"
      filterUnits="userSpaceOnUse"
      color-interpolation-filters="sRGB"
    >
      <feFlood flood-opacity="0" result="BackgroundImageFix" />
      <feColorMatrix
        in="SourceAlpha"
        type="matrix"
        values="0 0 0 0 0 0 0 0 0 0 0 0 0 0 0 0 0 0 127 0"
        result="hardAlpha"
      />
      <feOffset dy="4" />
      <feGaussianBlur stdDeviation="4" />
      <feComposite in2="hardAlpha" operator="out" />
      <feColorMatrix
        type="matrix"
        values="0 0 0 0 0.890196 0 0 0 0 0.756863 0 0 0 0 0.847059 0 0 0 0.6 0"
      />
      <feBlend
        mode="normal"
        in2="BackgroundImageFix"
        result="effect1_dropShadow_16980_3304"
      />
      <feBlend
        mode="normal"
        in="SourceGraphic"
        in2="effect1_dropShadow_16980_3304"
        result="shape"
      />
      <feColorMatrix
        in="SourceAlpha"
        type="matrix"
        values="0 0 0 0 0 0 0 0 0 0 0 0 0 0 0 0 0 0 127 0"
        result="hardAlpha"
      />
      <feOffset dx="4" dy="-4" />
      <feGaussianBlur stdDeviation="2" />
      <feComposite in2="hardAlpha" operator="arithmetic" k2="-1" k3="1" />
      <feColorMatrix
        type="matrix"
        values="0 0 0 0 0.976471 0 0 0 0 0.92549 0 0 0 0 0.992157 0 0 0 1 0"
      />
      <feBlend
        mode="normal"
        in2="shape"
        result="effect2_innerShadow_16980_3304"
      />
    </filter>
    <filter
      id="filter4_di_16980_3304"
      x="340.796"
      y="54.796"
      width="71.1958"
      height="71.1958"
      filterUnits="userSpaceOnUse"
      color-interpolation-filters="sRGB"
    >
      <feFlood flood-opacity="0" result="BackgroundImageFix" />
      <feColorMatrix
        in="SourceAlpha"
        type="matrix"
        values="0 0 0 0 0 0 0 0 0 0 0 0 0 0 0 0 0 0 127 0"
        result="hardAlpha"
      />
      <feOffset dy="4" />
      <feGaussianBlur stdDeviation="4" />
      <feComposite in2="hardAlpha" operator="out" />
      <feColorMatrix
        type="matrix"
        values="0 0 0 0 0.890196 0 0 0 0 0.756863 0 0 0 0 0.847059 0 0 0 0.6 0"
      />
      <feBlend
        mode="normal"
        in2="BackgroundImageFix"
        result="effect1_dropShadow_16980_3304"
      />
      <feBlend
        mode="normal"
        in="SourceGraphic"
        in2="effect1_dropShadow_16980_3304"
        result="shape"
      />
      <feColorMatrix
        in="SourceAlpha"
        type="matrix"
        values="0 0 0 0 0 0 0 0 0 0 0 0 0 0 0 0 0 0 127 0"
        result="hardAlpha"
      />
      <feOffset dx="4" dy="-4" />
      <feGaussianBlur stdDeviation="2" />
      <feComposite in2="hardAlpha" operator="arithmetic" k2="-1" k3="1" />
      <feColorMatrix
        type="matrix"
        values="0 0 0 0 0.976471 0 0 0 0 0.92549 0 0 0 0 0.992157 0 0 0 1 0"
      />
      <feBlend
        mode="normal"
        in2="shape"
        result="effect2_innerShadow_16980_3304"
      />
    </filter>
    <filter
      id="filter5_di_16980_3304"
      x="1105.8"
      y="95.796"
      width="71.1958"
      height="71.1958"
      filterUnits="userSpaceOnUse"
      color-interpolation-filters="sRGB"
    >
      <feFlood flood-opacity="0" result="BackgroundImageFix" />
      <feColorMatrix
        in="SourceAlpha"
        type="matrix"
        values="0 0 0 0 0 0 0 0 0 0 0 0 0 0 0 0 0 0 127 0"
        result="hardAlpha"
      />
      <feOffset dy="4" />
      <feGaussianBlur stdDeviation="4" />
      <feComposite in2="hardAlpha" operator="out" />
      <feColorMatrix
        type="matrix"
        values="0 0 0 0 0.890674 0 0 0 0 0.758406 0 0 0 0 0.848789 0 0 0 0.6 0"
      />
      <feBlend
        mode="normal"
        in2="BackgroundImageFix"
        result="effect1_dropShadow_16980_3304"
      />
      <feBlend
        mode="normal"
        in="SourceGraphic"
        in2="effect1_dropShadow_16980_3304"
        result="shape"
      />
      <feColorMatrix
        in="SourceAlpha"
        type="matrix"
        values="0 0 0 0 0 0 0 0 0 0 0 0 0 0 0 0 0 0 127 0"
        result="hardAlpha"
      />
      <feOffset dx="-4" dy="-4" />
      <feGaussianBlur stdDeviation="2" />
      <feComposite in2="hardAlpha" operator="arithmetic" k2="-1" k3="1" />
      <feColorMatrix
        type="matrix"
        values="0 0 0 0 0.976471 0 0 0 0 0.92549 0 0 0 0 0.992157 0 0 0 1 0"
      />
      <feBlend
        mode="normal"
        in2="shape"
        result="effect2_innerShadow_16980_3304"
      />
    </filter>
    <filter
      id="filter6_di_16980_3304"
      x="1202.8"
      y="18.796"
      width="71.1958"
      height="71.1958"
      filterUnits="userSpaceOnUse"
      color-interpolation-filters="sRGB"
    >
      <feFlood flood-opacity="0" result="BackgroundImageFix" />
      <feColorMatrix
        in="SourceAlpha"
        type="matrix"
        values="0 0 0 0 0 0 0 0 0 0 0 0 0 0 0 0 0 0 127 0"
        result="hardAlpha"
      />
      <feOffset dy="4" />
      <feGaussianBlur stdDeviation="4" />
      <feComposite in2="hardAlpha" operator="out" />
      <feColorMatrix
        type="matrix"
        values="0 0 0 0 0.890674 0 0 0 0 0.758406 0 0 0 0 0.848789 0 0 0 0.6 0"
      />
      <feBlend
        mode="normal"
        in2="BackgroundImageFix"
        result="effect1_dropShadow_16980_3304"
      />
      <feBlend
        mode="normal"
        in="SourceGraphic"
        in2="effect1_dropShadow_16980_3304"
        result="shape"
      />
      <feColorMatrix
        in="SourceAlpha"
        type="matrix"
        values="0 0 0 0 0 0 0 0 0 0 0 0 0 0 0 0 0 0 127 0"
        result="hardAlpha"
      />
      <feOffset dx="-4" dy="-4" />
      <feGaussianBlur stdDeviation="2" />
      <feComposite in2="hardAlpha" operator="arithmetic" k2="-1" k3="1" />
      <feColorMatrix
        type="matrix"
        values="0 0 0 0 0.976471 0 0 0 0 0.92549 0 0 0 0 0.992157 0 0 0 1 0"
      />
      <feBlend
        mode="normal"
        in2="shape"
        result="effect2_innerShadow_16980_3304"
      />
    </filter>
    <filter
      id="filter7_di_16980_3304"
      x="852.796"
      y="-5.20398"
      width="71.1958"
      height="71.1958"
      filterUnits="userSpaceOnUse"
      color-interpolation-filters="sRGB"
    >
      <feFlood flood-opacity="0" result="BackgroundImageFix" />
      <feColorMatrix
        in="SourceAlpha"
        type="matrix"
        values="0 0 0 0 0 0 0 0 0 0 0 0 0 0 0 0 0 0 127 0"
        result="hardAlpha"
      />
      <feOffset dy="4" />
      <feGaussianBlur stdDeviation="4" />
      <feComposite in2="hardAlpha" operator="out" />
      <feColorMatrix
        type="matrix"
        values="0 0 0 0 0.890674 0 0 0 0 0.758406 0 0 0 0 0.848789 0 0 0 0.6 0"
      />
      <feBlend
        mode="normal"
        in2="BackgroundImageFix"
        result="effect1_dropShadow_16980_3304"
      />
      <feBlend
        mode="normal"
        in="SourceGraphic"
        in2="effect1_dropShadow_16980_3304"
        result="shape"
      />
      <feColorMatrix
        in="SourceAlpha"
        type="matrix"
        values="0 0 0 0 0 0 0 0 0 0 0 0 0 0 0 0 0 0 127 0"
        result="hardAlpha"
      />
      <feOffset dx="-4" dy="-4" />
      <feGaussianBlur stdDeviation="2" />
      <feComposite in2="hardAlpha" operator="arithmetic" k2="-1" k3="1" />
      <feColorMatrix
        type="matrix"
        values="0 0 0 0 0.976471 0 0 0 0 0.92549 0 0 0 0 0.992157 0 0 0 1 0"
      />
      <feBlend
        mode="normal"
        in2="shape"
        result="effect2_innerShadow_16980_3304"
      />
    </filter>
    <filter
      id="filter8_di_16980_3304"
      x="1162.9"
      y="-8.10205"
      width="30.6987"
      height="32.699"
      filterUnits="userSpaceOnUse"
      color-interpolation-filters="sRGB"
    >
      <feFlood flood-opacity="0" result="BackgroundImageFix" />
      <feColorMatrix
        in="SourceAlpha"
        type="matrix"
        values="0 0 0 0 0 0 0 0 0 0 0 0 0 0 0 0 0 0 127 0"
        result="hardAlpha"
      />
      <feOffset dy="4" />
      <feGaussianBlur stdDeviation="2" />
      <feComposite in2="hardAlpha" operator="out" />
      <feColorMatrix
        type="matrix"
        values="0 0 0 0 0.950716 0 0 0 0 0.814762 0 0 0 0 0.907664 0 0 0 0.6 0"
      />
      <feBlend
        mode="normal"
        in2="BackgroundImageFix"
        result="effect1_dropShadow_16980_3304"
      />
      <feBlend
        mode="normal"
        in="SourceGraphic"
        in2="effect1_dropShadow_16980_3304"
        result="shape"
      />
      <feColorMatrix
        in="SourceAlpha"
        type="matrix"
        values="0 0 0 0 0 0 0 0 0 0 0 0 0 0 0 0 0 0 127 0"
        result="hardAlpha"
      />
      <feOffset dy="-2" />
      <feGaussianBlur stdDeviation="2" />
      <feComposite in2="hardAlpha" operator="arithmetic" k2="-1" k3="1" />
      <feColorMatrix
        type="matrix"
        values="0 0 0 0 0.976471 0 0 0 0 0.92549 0 0 0 0 0.992157 0 0 0 1 0"
      />
      <feBlend
        mode="normal"
        in2="shape"
        result="effect2_innerShadow_16980_3304"
      />
    </filter>
    <filter
      id="filter9_di_16980_3304"
      x="261.897"
      y="105.898"
      width="30.6987"
      height="32.699"
      filterUnits="userSpaceOnUse"
      color-interpolation-filters="sRGB"
    >
      <feFlood flood-opacity="0" result="BackgroundImageFix" />
      <feColorMatrix
        in="SourceAlpha"
        type="matrix"
        values="0 0 0 0 0 0 0 0 0 0 0 0 0 0 0 0 0 0 127 0"
        result="hardAlpha"
      />
      <feOffset dy="4" />
      <feGaussianBlur stdDeviation="2" />
      <feComposite in2="hardAlpha" operator="out" />
      <feColorMatrix
        type="matrix"
        values="0 0 0 0 0.950716 0 0 0 0 0.814762 0 0 0 0 0.907664 0 0 0 0.6 0"
      />
      <feBlend
        mode="normal"
        in2="BackgroundImageFix"
        result="effect1_dropShadow_16980_3304"
      />
      <feBlend
        mode="normal"
        in="SourceGraphic"
        in2="effect1_dropShadow_16980_3304"
        result="shape"
      />
      <feColorMatrix
        in="SourceAlpha"
        type="matrix"
        values="0 0 0 0 0 0 0 0 0 0 0 0 0 0 0 0 0 0 127 0"
        result="hardAlpha"
      />
      <feOffset dy="-2" />
      <feGaussianBlur stdDeviation="2" />
      <feComposite in2="hardAlpha" operator="arithmetic" k2="-1" k3="1" />
      <feColorMatrix
        type="matrix"
        values="0 0 0 0 0.976471 0 0 0 0 0.92549 0 0 0 0 0.992157 0 0 0 1 0"
      />
      <feBlend
        mode="normal"
        in2="shape"
        result="effect2_innerShadow_16980_3304"
      />
    </filter>
    <filter
      id="filter10_di_16980_3304"
      x="1357.9"
      y="42.8979"
      width="30.6987"
      height="32.699"
      filterUnits="userSpaceOnUse"
      color-interpolation-filters="sRGB"
    >
      <feFlood flood-opacity="0" result="BackgroundImageFix" />
      <feColorMatrix
        in="SourceAlpha"
        type="matrix"
        values="0 0 0 0 0 0 0 0 0 0 0 0 0 0 0 0 0 0 127 0"
        result="hardAlpha"
      />
      <feOffset dy="4" />
      <feGaussianBlur stdDeviation="2" />
      <feComposite in2="hardAlpha" operator="out" />
      <feColorMatrix
        type="matrix"
        values="0 0 0 0 0.950716 0 0 0 0 0.814762 0 0 0 0 0.907664 0 0 0 0.6 0"
      />
      <feBlend
        mode="normal"
        in2="BackgroundImageFix"
        result="effect1_dropShadow_16980_3304"
      />
      <feBlend
        mode="normal"
        in="SourceGraphic"
        in2="effect1_dropShadow_16980_3304"
        result="shape"
      />
      <feColorMatrix
        in="SourceAlpha"
        type="matrix"
        values="0 0 0 0 0 0 0 0 0 0 0 0 0 0 0 0 0 0 127 0"
        result="hardAlpha"
      />
      <feOffset dy="-2" />
      <feGaussianBlur stdDeviation="2" />
      <feComposite in2="hardAlpha" operator="arithmetic" k2="-1" k3="1" />
      <feColorMatrix
        type="matrix"
        values="0 0 0 0 0.976471 0 0 0 0 0.92549 0 0 0 0 0.992157 0 0 0 1 0"
      />
      <feBlend
        mode="normal"
        in2="shape"
        result="effect2_innerShadow_16980_3304"
      />
    </filter>
    <filter
      id="filter11_di_16980_3304"
      x="118.898"
      y="12.8979"
      width="30.699"
      height="32.699"
      filterUnits="userSpaceOnUse"
      color-interpolation-filters="sRGB"
    >
      <feFlood flood-opacity="0" result="BackgroundImageFix" />
      <feColorMatrix
        in="SourceAlpha"
        type="matrix"
        values="0 0 0 0 0 0 0 0 0 0 0 0 0 0 0 0 0 0 127 0"
        result="hardAlpha"
      />
      <feOffset dy="4" />
      <feGaussianBlur stdDeviation="2" />
      <feComposite in2="hardAlpha" operator="out" />
      <feColorMatrix
        type="matrix"
        values="0 0 0 0 0.950716 0 0 0 0 0.814762 0 0 0 0 0.907664 0 0 0 0.6 0"
      />
      <feBlend
        mode="normal"
        in2="BackgroundImageFix"
        result="effect1_dropShadow_16980_3304"
      />
      <feBlend
        mode="normal"
        in="SourceGraphic"
        in2="effect1_dropShadow_16980_3304"
        result="shape"
      />
      <feColorMatrix
        in="SourceAlpha"
        type="matrix"
        values="0 0 0 0 0 0 0 0 0 0 0 0 0 0 0 0 0 0 127 0"
        result="hardAlpha"
      />
      <feOffset dy="-2" />
      <feGaussianBlur stdDeviation="2" />
      <feComposite in2="hardAlpha" operator="arithmetic" k2="-1" k3="1" />
      <feColorMatrix
        type="matrix"
        values="0 0 0 0 0.976471 0 0 0 0 0.92549 0 0 0 0 0.992157 0 0 0 1 0"
      />
      <feBlend
        mode="normal"
        in2="shape"
        result="effect2_innerShadow_16980_3304"
      />
    </filter>
    <filter
      id="filter12_di_16980_3304"
      x="0.897949"
      y="68.8979"
      width="30.699"
      height="32.699"
      filterUnits="userSpaceOnUse"
      color-interpolation-filters="sRGB"
    >
      <feFlood flood-opacity="0" result="BackgroundImageFix" />
      <feColorMatrix
        in="SourceAlpha"
        type="matrix"
        values="0 0 0 0 0 0 0 0 0 0 0 0 0 0 0 0 0 0 127 0"
        result="hardAlpha"
      />
      <feOffset dy="4" />
      <feGaussianBlur stdDeviation="2" />
      <feComposite in2="hardAlpha" operator="out" />
      <feColorMatrix
        type="matrix"
        values="0 0 0 0 0.950716 0 0 0 0 0.814762 0 0 0 0 0.907664 0 0 0 0.6 0"
      />
      <feBlend
        mode="normal"
        in2="BackgroundImageFix"
        result="effect1_dropShadow_16980_3304"
      />
      <feBlend
        mode="normal"
        in="SourceGraphic"
        in2="effect1_dropShadow_16980_3304"
        result="shape"
      />
      <feColorMatrix
        in="SourceAlpha"
        type="matrix"
        values="0 0 0 0 0 0 0 0 0 0 0 0 0 0 0 0 0 0 127 0"
        result="hardAlpha"
      />
      <feOffset dy="-2" />
      <feGaussianBlur stdDeviation="2" />
      <feComposite in2="hardAlpha" operator="arithmetic" k2="-1" k3="1" />
      <feColorMatrix
        type="matrix"
        values="0 0 0 0 0.976471 0 0 0 0 0.92549 0 0 0 0 0.992157 0 0 0 1 0"
      />
      <feBlend
        mode="normal"
        in2="shape"
        result="effect2_innerShadow_16980_3304"
      />
    </filter>
    <filter
      id="filter13_di_16980_3304"
      x="397.898"
      y="-9.10205"
      width="30.699"
      height="32.699"
      filterUnits="userSpaceOnUse"
      color-interpolation-filters="sRGB"
    >
      <feFlood flood-opacity="0" result="BackgroundImageFix" />
      <feColorMatrix
        in="SourceAlpha"
        type="matrix"
        values="0 0 0 0 0 0 0 0 0 0 0 0 0 0 0 0 0 0 127 0"
        result="hardAlpha"
      />
      <feOffset dy="4" />
      <feGaussianBlur stdDeviation="2" />
      <feComposite in2="hardAlpha" operator="out" />
      <feColorMatrix
        type="matrix"
        values="0 0 0 0 0.950716 0 0 0 0 0.814762 0 0 0 0 0.907664 0 0 0 0.6 0"
      />
      <feBlend
        mode="normal"
        in2="BackgroundImageFix"
        result="effect1_dropShadow_16980_3304"
      />
      <feBlend
        mode="normal"
        in="SourceGraphic"
        in2="effect1_dropShadow_16980_3304"
        result="shape"
      />
      <feColorMatrix
        in="SourceAlpha"
        type="matrix"
        values="0 0 0 0 0 0 0 0 0 0 0 0 0 0 0 0 0 0 127 0"
        result="hardAlpha"
      />
      <feOffset dy="-2" />
      <feGaussianBlur stdDeviation="2" />
      <feComposite in2="hardAlpha" operator="arithmetic" k2="-1" k3="1" />
      <feColorMatrix
        type="matrix"
        values="0 0 0 0 0.976471 0 0 0 0 0.92549 0 0 0 0 0.992157 0 0 0 1 0"
      />
      <feBlend
        mode="normal"
        in2="shape"
        result="effect2_innerShadow_16980_3304"
      />
    </filter>
    <filter
      id="filter14_di_16980_3304"
      x="973.898"
      y="82.8979"
      width="30.699"
      height="32.699"
      filterUnits="userSpaceOnUse"
      color-interpolation-filters="sRGB"
    >
      <feFlood flood-opacity="0" result="BackgroundImageFix" />
      <feColorMatrix
        in="SourceAlpha"
        type="matrix"
        values="0 0 0 0 0 0 0 0 0 0 0 0 0 0 0 0 0 0 127 0"
        result="hardAlpha"
      />
      <feOffset dy="4" />
      <feGaussianBlur stdDeviation="2" />
      <feComposite in2="hardAlpha" operator="out" />
      <feColorMatrix
        type="matrix"
        values="0 0 0 0 0.950716 0 0 0 0 0.814762 0 0 0 0 0.907664 0 0 0 0.6 0"
      />
      <feBlend
        mode="normal"
        in2="BackgroundImageFix"
        result="effect1_dropShadow_16980_3304"
      />
      <feBlend
        mode="normal"
        in="SourceGraphic"
        in2="effect1_dropShadow_16980_3304"
        result="shape"
      />
      <feColorMatrix
        in="SourceAlpha"
        type="matrix"
        values="0 0 0 0 0 0 0 0 0 0 0 0 0 0 0 0 0 0 127 0"
        result="hardAlpha"
      />
      <feOffset dy="-2" />
      <feGaussianBlur stdDeviation="2" />
      <feComposite in2="hardAlpha" operator="arithmetic" k2="-1" k3="1" />
      <feColorMatrix
        type="matrix"
        values="0 0 0 0 0.976471 0 0 0 0 0.92549 0 0 0 0 0.992157 0 0 0 1 0"
      />
      <feBlend
        mode="normal"
        in2="shape"
        result="effect2_innerShadow_16980_3304"
      />
    </filter>
    <filter
      id="filter15_f_16980_3304"
      x="42.2246"
      y="27.2245"
      width="11.3489"
      height="11.349"
      filterUnits="userSpaceOnUse"
      color-interpolation-filters="sRGB"
    >
      <feFlood flood-opacity="0" result="BackgroundImageFix" />
      <feBlend
        mode="normal"
        in="SourceGraphic"
        in2="BackgroundImageFix"
        result="shape"
      />
      <feGaussianBlur
        stdDeviation="0.5"
        result="effect1_foregroundBlur_16980_3304"
      />
    </filter>
    <filter
      id="filter16_f_16980_3304"
      x="198.225"
      y="72.2245"
      width="11.3489"
      height="11.349"
      filterUnits="userSpaceOnUse"
      color-interpolation-filters="sRGB"
    >
      <feFlood flood-opacity="0" result="BackgroundImageFix" />
      <feBlend
        mode="normal"
        in="SourceGraphic"
        in2="BackgroundImageFix"
        result="shape"
      />
      <feGaussianBlur
        stdDeviation="0.5"
        result="effect1_foregroundBlur_16980_3304"
      />
    </filter>
    <filter
      id="filter17_f_16980_3304"
      x="354.225"
      y="17.2245"
      width="11.3489"
      height="11.349"
      filterUnits="userSpaceOnUse"
      color-interpolation-filters="sRGB"
    >
      <feFlood flood-opacity="0" result="BackgroundImageFix" />
      <feBlend
        mode="normal"
        in="SourceGraphic"
        in2="BackgroundImageFix"
        result="shape"
      />
      <feGaussianBlur
        stdDeviation="0.5"
        result="effect1_foregroundBlur_16980_3304"
      />
    </filter>
    <filter
      id="filter18_f_16980_3304"
      x="497.225"
      y="80.2245"
      width="11.3489"
      height="11.349"
      filterUnits="userSpaceOnUse"
      color-interpolation-filters="sRGB"
    >
      <feFlood flood-opacity="0" result="BackgroundImageFix" />
      <feBlend
        mode="normal"
        in="SourceGraphic"
        in2="BackgroundImageFix"
        result="shape"
      />
      <feGaussianBlur
        stdDeviation="0.5"
        result="effect1_foregroundBlur_16980_3304"
      />
    </filter>
    <filter
      id="filter19_f_16980_3304"
      x="627.225"
      y="12.2245"
      width="11.3489"
      height="11.349"
      filterUnits="userSpaceOnUse"
      color-interpolation-filters="sRGB"
    >
      <feFlood flood-opacity="0" result="BackgroundImageFix" />
      <feBlend
        mode="normal"
        in="SourceGraphic"
        in2="BackgroundImageFix"
        result="shape"
      />
      <feGaussianBlur
        stdDeviation="0.5"
        result="effect1_foregroundBlur_16980_3304"
      />
    </filter>
    <filter
      id="filter20_f_16980_3304"
      x="891.225"
      y="96.2245"
      width="11.3489"
      height="11.349"
      filterUnits="userSpaceOnUse"
      color-interpolation-filters="sRGB"
    >
      <feFlood flood-opacity="0" result="BackgroundImageFix" />
      <feBlend
        mode="normal"
        in="SourceGraphic"
        in2="BackgroundImageFix"
        result="shape"
      />
      <feGaussianBlur
        stdDeviation="0.5"
        result="effect1_foregroundBlur_16980_3304"
      />
    </filter>
    <filter
      id="filter21_f_16980_3304"
      x="809.225"
      y="30.2245"
      width="11.3489"
      height="11.349"
      filterUnits="userSpaceOnUse"
      color-interpolation-filters="sRGB"
    >
      <feFlood flood-opacity="0" result="BackgroundImageFix" />
      <feBlend
        mode="normal"
        in="SourceGraphic"
        in2="BackgroundImageFix"
        result="shape"
      />
      <feGaussianBlur
        stdDeviation="0.5"
        result="effect1_foregroundBlur_16980_3304"
      />
    </filter>
    <filter
      id="filter22_f_16980_3304"
      x="968.225"
      y="16.2245"
      width="11.3489"
      height="11.349"
      filterUnits="userSpaceOnUse"
      color-interpolation-filters="sRGB"
    >
      <feFlood flood-opacity="0" result="BackgroundImageFix" />
      <feBlend
        mode="normal"
        in="SourceGraphic"
        in2="BackgroundImageFix"
        result="shape"
      />
      <feGaussianBlur
        stdDeviation="0.5"
        result="effect1_foregroundBlur_16980_3304"
      />
    </filter>
    <filter
      id="filter23_f_16980_3304"
      x="1075.22"
      y="107.224"
      width="11.3489"
      height="11.349"
      filterUnits="userSpaceOnUse"
      color-interpolation-filters="sRGB"
    >
      <feFlood flood-opacity="0" result="BackgroundImageFix" />
      <feBlend
        mode="normal"
        in="SourceGraphic"
        in2="BackgroundImageFix"
        result="shape"
      />
      <feGaussianBlur
        stdDeviation="0.5"
        result="effect1_foregroundBlur_16980_3304"
      />
    </filter>
    <filter
      id="filter24_f_16980_3304"
      x="1145.22"
      y="30.2245"
      width="11.3489"
      height="11.349"
      filterUnits="userSpaceOnUse"
      color-interpolation-filters="sRGB"
    >
      <feFlood flood-opacity="0" result="BackgroundImageFix" />
      <feBlend
        mode="normal"
        in="SourceGraphic"
        in2="BackgroundImageFix"
        result="shape"
      />
      <feGaussianBlur
        stdDeviation="0.5"
        result="effect1_foregroundBlur_16980_3304"
      />
    </filter>
    <filter
      id="filter25_f_16980_3304"
      x="1234.22"
      y="114.224"
      width="11.3486"
      height="11.349"
      filterUnits="userSpaceOnUse"
      color-interpolation-filters="sRGB"
    >
      <feFlood flood-opacity="0" result="BackgroundImageFix" />
      <feBlend
        mode="normal"
        in="SourceGraphic"
        in2="BackgroundImageFix"
        result="shape"
      />
      <feGaussianBlur
        stdDeviation="0.5"
        result="effect1_foregroundBlur_16980_3304"
      />
    </filter>
    <filter
      id="filter26_f_16980_3304"
      x="1320.22"
      y="24.2245"
      width="11.3486"
      height="11.349"
      filterUnits="userSpaceOnUse"
      color-interpolation-filters="sRGB"
    >
      <feFlood flood-opacity="0" result="BackgroundImageFix" />
      <feBlend
        mode="normal"
        in="SourceGraphic"
        in2="BackgroundImageFix"
        result="shape"
      />
      <feGaussianBlur
        stdDeviation="0.5"
        result="effect1_foregroundBlur_16980_3304"
      />
    </filter>
    <filter
      id="filter27_f_16980_3304"
      x="1384.22"
      y="99.2245"
      width="11.3486"
      height="11.349"
      filterUnits="userSpaceOnUse"
      color-interpolation-filters="sRGB"
    >
      <feFlood flood-opacity="0" result="BackgroundImageFix" />
      <feBlend
        mode="normal"
        in="SourceGraphic"
        in2="BackgroundImageFix"
        result="shape"
      />
      <feGaussianBlur
        stdDeviation="0.5"
        result="effect1_foregroundBlur_16980_3304"
      />
    </filter>
  </defs>
</svg>
