<svg
  width="191"
  height="56"
  viewBox="0 0 191 56"
  fill="none"
  xmlns="http://www.w3.org/2000/svg"
>
  <g filter="url(#filter0_di_16996_4242)">
    <rect
      x="32.0001"
      y="6.21167"
      width="24"
      height="24"
      rx="4"
      transform="rotate(-15 32.0001 6.21167)"
      fill="white"
    />
  </g>
  <path
    d="M46.9094 18.0556L43.8449 12.8533L44.7368 12.6144L46.9978 16.6732L47.05 16.6592L47.0226 12.0019L47.9062 11.7651L50.2119 15.8149L50.2641 15.8009L50.1893 11.1534L51.0839 10.9137L51.0284 16.952L50.1749 17.1806L47.8643 13.2881L47.8204 13.2999L47.7656 17.8262L46.9094 18.0556Z"
    fill="#CD5BC6"
    fill-opacity="0.6"
  />
  <g filter="url(#filter1_di_16996_4242)">
    <rect
      x="95.2118"
      y="-20"
      width="24"
      height="24"
      rx="4"
      transform="rotate(15 95.2118 -20)"
      fill="white"
    />
  </g>
  <g filter="url(#filter2_di_16996_4242)">
    <rect
      x="131.212"
      y="5"
      width="24"
      height="24"
      rx="4"
      transform="rotate(15 131.212 5)"
      fill="white"
    />
  </g>
  <path
    d="M142.092 18.6808C142.133 18.4131 142.066 18.1795 141.892 17.98C141.718 17.7786 141.471 17.6348 141.149 17.5485C140.918 17.4867 140.709 17.4699 140.521 17.498C140.334 17.5242 140.176 17.588 140.049 17.6892C139.925 17.7891 139.841 17.9186 139.798 18.0778C139.762 18.2113 139.763 18.3349 139.799 18.4485C139.837 18.5626 139.898 18.6664 139.983 18.7597C140.07 18.8516 140.167 18.9355 140.274 19.0113C140.382 19.0852 140.487 19.1506 140.59 19.2075L141.1 19.4972C141.268 19.5891 141.436 19.6979 141.604 19.8234C141.772 19.9489 141.92 20.0945 142.049 20.2602C142.177 20.4259 142.266 20.6125 142.316 20.8201C142.368 21.0282 142.361 21.2584 142.293 21.5109C142.208 21.8292 142.05 22.0898 141.819 22.2926C141.59 22.496 141.301 22.6273 140.951 22.6867C140.604 22.7466 140.211 22.7177 139.772 22.6C139.351 22.4873 139.005 22.3229 138.733 22.1071C138.462 21.8912 138.272 21.6373 138.164 21.3456C138.056 21.0521 138.038 20.7337 138.111 20.3903L138.962 20.6183C138.924 20.8257 138.944 21.0126 139.023 21.1789C139.104 21.3438 139.227 21.4834 139.39 21.5978C139.556 21.7109 139.748 21.7966 139.965 21.8549C140.205 21.9191 140.428 21.9387 140.635 21.9137C140.844 21.8874 141.021 21.821 141.165 21.7145C141.31 21.6062 141.406 21.4606 141.455 21.2777C141.5 21.1112 141.489 20.9622 141.422 20.8306C141.357 20.6995 141.254 20.5776 141.111 20.4649C140.971 20.3528 140.807 20.2432 140.62 20.1362L140.005 19.7772C139.587 19.534 139.279 19.2582 139.079 18.9498C138.881 18.6419 138.835 18.2922 138.94 17.9007C139.027 17.5769 139.19 17.3178 139.43 17.1234C139.671 16.9289 139.959 16.8051 140.295 16.752C140.631 16.697 140.987 16.72 141.364 16.821C141.745 16.9229 142.063 17.0797 142.318 17.2911C142.575 17.5031 142.756 17.7487 142.861 18.028C142.967 18.3054 142.984 18.5961 142.91 18.8999L142.092 18.6808Z"
    fill="#CD5BC6"
    fill-opacity="0.6"
  />
  <g filter="url(#filter3_di_16996_4242)">
    <rect
      x="171.588"
      y="6"
      width="10"
      height="10"
      rx="2"
      transform="rotate(15 171.588 6)"
      fill="white"
    />
  </g>
  <g filter="url(#filter4_di_16996_4242)">
    <rect
      x="187.588"
      y="40"
      width="10"
      height="10"
      rx="2"
      transform="rotate(15 187.588 40)"
      fill="white"
    />
  </g>
  <g filter="url(#filter5_f_16996_4242)">
    <rect
      x="2.07043"
      y="12"
      width="4"
      height="4"
      rx="1"
      transform="rotate(15 2.07043 12)"
      fill="white"
      fill-opacity="0.5"
    />
  </g>
  <g filter="url(#filter6_f_16996_4242)">
    <rect
      x="90.0001"
      y="28.0706"
      width="4"
      height="4"
      rx="1"
      transform="rotate(-15 90.0001 28.0706)"
      fill="white"
      fill-opacity="0.5"
    />
  </g>
  <g filter="url(#filter7_f_16996_4242)">
    <rect
      x="144"
      y="50.0353"
      width="4"
      height="4"
      rx="1"
      transform="rotate(-15 144 50.0353)"
      fill="white"
      fill-opacity="0.5"
    />
  </g>
  <g filter="url(#filter8_f_16996_4242)">
    <rect
      x="174"
      y="32.0353"
      width="4"
      height="4"
      rx="1"
      transform="rotate(-15 174 32.0353)"
      fill="white"
      fill-opacity="0.5"
    />
  </g>
  <g filter="url(#filter9_f_16996_4242)">
    <rect
      x="66.0001"
      y="49.0353"
      width="4"
      height="4"
      rx="1"
      transform="rotate(-15 66.0001 49.0353)"
      fill="white"
      fill-opacity="0.5"
    />
  </g>
  <defs>
    <filter
      id="filter0_di_16996_4242"
      x="28.8981"
      y="-1.10205"
      width="35.5979"
      height="35.5979"
      filterUnits="userSpaceOnUse"
      color-interpolation-filters="sRGB"
    >
      <feFlood flood-opacity="0" result="BackgroundImageFix" />
      <feColorMatrix
        in="SourceAlpha"
        type="matrix"
        values="0 0 0 0 0 0 0 0 0 0 0 0 0 0 0 0 0 0 127 0"
        result="hardAlpha"
      />
      <feOffset dy="2" />
      <feGaussianBlur stdDeviation="2" />
      <feComposite in2="hardAlpha" operator="out" />
      <feColorMatrix
        type="matrix"
        values="0 0 0 0 0.890196 0 0 0 0 0.756863 0 0 0 0 0.847059 0 0 0 0.6 0"
      />
      <feBlend
        mode="normal"
        in2="BackgroundImageFix"
        result="effect1_dropShadow_16996_4242"
      />
      <feBlend
        mode="normal"
        in="SourceGraphic"
        in2="effect1_dropShadow_16996_4242"
        result="shape"
      />
      <feColorMatrix
        in="SourceAlpha"
        type="matrix"
        values="0 0 0 0 0 0 0 0 0 0 0 0 0 0 0 0 0 0 127 0"
        result="hardAlpha"
      />
      <feOffset dx="2" dy="-2" />
      <feGaussianBlur stdDeviation="1" />
      <feComposite in2="hardAlpha" operator="arithmetic" k2="-1" k3="1" />
      <feColorMatrix
        type="matrix"
        values="0 0 0 0 0.976471 0 0 0 0 0.92549 0 0 0 0 0.992157 0 0 0 1 0"
      />
      <feBlend
        mode="normal"
        in2="shape"
        result="effect2_innerShadow_16996_4242"
      />
    </filter>
    <filter
      id="filter1_di_16996_4242"
      x="85.8981"
      y="-21.1021"
      width="35.5979"
      height="35.5979"
      filterUnits="userSpaceOnUse"
      color-interpolation-filters="sRGB"
    >
      <feFlood flood-opacity="0" result="BackgroundImageFix" />
      <feColorMatrix
        in="SourceAlpha"
        type="matrix"
        values="0 0 0 0 0 0 0 0 0 0 0 0 0 0 0 0 0 0 127 0"
        result="hardAlpha"
      />
      <feOffset dy="2" />
      <feGaussianBlur stdDeviation="2" />
      <feComposite in2="hardAlpha" operator="out" />
      <feColorMatrix
        type="matrix"
        values="0 0 0 0 0.890196 0 0 0 0 0.756863 0 0 0 0 0.847059 0 0 0 0.6 0"
      />
      <feBlend
        mode="normal"
        in2="BackgroundImageFix"
        result="effect1_dropShadow_16996_4242"
      />
      <feBlend
        mode="normal"
        in="SourceGraphic"
        in2="effect1_dropShadow_16996_4242"
        result="shape"
      />
      <feColorMatrix
        in="SourceAlpha"
        type="matrix"
        values="0 0 0 0 0 0 0 0 0 0 0 0 0 0 0 0 0 0 127 0"
        result="hardAlpha"
      />
      <feOffset dx="2" dy="-2" />
      <feGaussianBlur stdDeviation="1" />
      <feComposite in2="hardAlpha" operator="arithmetic" k2="-1" k3="1" />
      <feColorMatrix
        type="matrix"
        values="0 0 0 0 0.976471 0 0 0 0 0.92549 0 0 0 0 0.992157 0 0 0 1 0"
      />
      <feBlend
        mode="normal"
        in2="shape"
        result="effect2_innerShadow_16996_4242"
      />
    </filter>
    <filter
      id="filter2_di_16996_4242"
      x="121.898"
      y="3.89795"
      width="35.5979"
      height="35.5979"
      filterUnits="userSpaceOnUse"
      color-interpolation-filters="sRGB"
    >
      <feFlood flood-opacity="0" result="BackgroundImageFix" />
      <feColorMatrix
        in="SourceAlpha"
        type="matrix"
        values="0 0 0 0 0 0 0 0 0 0 0 0 0 0 0 0 0 0 127 0"
        result="hardAlpha"
      />
      <feOffset dy="2" />
      <feGaussianBlur stdDeviation="2" />
      <feComposite in2="hardAlpha" operator="out" />
      <feColorMatrix
        type="matrix"
        values="0 0 0 0 0.890196 0 0 0 0 0.756863 0 0 0 0 0.847059 0 0 0 0.6 0"
      />
      <feBlend
        mode="normal"
        in2="BackgroundImageFix"
        result="effect1_dropShadow_16996_4242"
      />
      <feBlend
        mode="normal"
        in="SourceGraphic"
        in2="effect1_dropShadow_16996_4242"
        result="shape"
      />
      <feColorMatrix
        in="SourceAlpha"
        type="matrix"
        values="0 0 0 0 0 0 0 0 0 0 0 0 0 0 0 0 0 0 127 0"
        result="hardAlpha"
      />
      <feOffset dx="2" dy="-2" />
      <feGaussianBlur stdDeviation="1" />
      <feComposite in2="hardAlpha" operator="arithmetic" k2="-1" k3="1" />
      <feColorMatrix
        type="matrix"
        values="0 0 0 0 0.976471 0 0 0 0 0.92549 0 0 0 0 0.992157 0 0 0 1 0"
      />
      <feBlend
        mode="normal"
        in2="shape"
        result="effect2_innerShadow_16996_4242"
      />
    </filter>
    <filter
      id="filter3_di_16996_4242"
      x="167.449"
      y="5.44897"
      width="15.3495"
      height="16.3495"
      filterUnits="userSpaceOnUse"
      color-interpolation-filters="sRGB"
    >
      <feFlood flood-opacity="0" result="BackgroundImageFix" />
      <feColorMatrix
        in="SourceAlpha"
        type="matrix"
        values="0 0 0 0 0 0 0 0 0 0 0 0 0 0 0 0 0 0 127 0"
        result="hardAlpha"
      />
      <feOffset dy="2" />
      <feGaussianBlur stdDeviation="1" />
      <feComposite in2="hardAlpha" operator="out" />
      <feColorMatrix
        type="matrix"
        values="0 0 0 0 0.950716 0 0 0 0 0.814762 0 0 0 0 0.907664 0 0 0 0.6 0"
      />
      <feBlend
        mode="normal"
        in2="BackgroundImageFix"
        result="effect1_dropShadow_16996_4242"
      />
      <feBlend
        mode="normal"
        in="SourceGraphic"
        in2="effect1_dropShadow_16996_4242"
        result="shape"
      />
      <feColorMatrix
        in="SourceAlpha"
        type="matrix"
        values="0 0 0 0 0 0 0 0 0 0 0 0 0 0 0 0 0 0 127 0"
        result="hardAlpha"
      />
      <feOffset dy="-1" />
      <feGaussianBlur stdDeviation="1" />
      <feComposite in2="hardAlpha" operator="arithmetic" k2="-1" k3="1" />
      <feColorMatrix
        type="matrix"
        values="0 0 0 0 0.976471 0 0 0 0 0.92549 0 0 0 0 0.992157 0 0 0 1 0"
      />
      <feBlend
        mode="normal"
        in2="shape"
        result="effect2_innerShadow_16996_4242"
      />
    </filter>
    <filter
      id="filter4_di_16996_4242"
      x="183.449"
      y="39.449"
      width="15.3495"
      height="16.3495"
      filterUnits="userSpaceOnUse"
      color-interpolation-filters="sRGB"
    >
      <feFlood flood-opacity="0" result="BackgroundImageFix" />
      <feColorMatrix
        in="SourceAlpha"
        type="matrix"
        values="0 0 0 0 0 0 0 0 0 0 0 0 0 0 0 0 0 0 127 0"
        result="hardAlpha"
      />
      <feOffset dy="2" />
      <feGaussianBlur stdDeviation="1" />
      <feComposite in2="hardAlpha" operator="out" />
      <feColorMatrix
        type="matrix"
        values="0 0 0 0 0.950716 0 0 0 0 0.814762 0 0 0 0 0.907664 0 0 0 0.6 0"
      />
      <feBlend
        mode="normal"
        in2="BackgroundImageFix"
        result="effect1_dropShadow_16996_4242"
      />
      <feBlend
        mode="normal"
        in="SourceGraphic"
        in2="effect1_dropShadow_16996_4242"
        result="shape"
      />
      <feColorMatrix
        in="SourceAlpha"
        type="matrix"
        values="0 0 0 0 0 0 0 0 0 0 0 0 0 0 0 0 0 0 127 0"
        result="hardAlpha"
      />
      <feOffset dy="-1" />
      <feGaussianBlur stdDeviation="1" />
      <feComposite in2="hardAlpha" operator="arithmetic" k2="-1" k3="1" />
      <feColorMatrix
        type="matrix"
        values="0 0 0 0 0.976471 0 0 0 0 0.92549 0 0 0 0 0.992157 0 0 0 1 0"
      />
      <feBlend
        mode="normal"
        in2="shape"
        result="effect2_innerShadow_16996_4242"
      />
    </filter>
    <filter
      id="filter5_f_16996_4242"
      x="0.259644"
      y="11.2245"
      width="6.45001"
      height="6.44995"
      filterUnits="userSpaceOnUse"
      color-interpolation-filters="sRGB"
    >
      <feFlood flood-opacity="0" result="BackgroundImageFix" />
      <feBlend
        mode="normal"
        in="SourceGraphic"
        in2="BackgroundImageFix"
        result="shape"
      />
      <feGaussianBlur
        stdDeviation="0.5"
        result="effect1_foregroundBlur_16996_4242"
      />
    </filter>
    <filter
      id="filter6_f_16996_4242"
      x="89.2246"
      y="26.2598"
      width="6.44998"
      height="6.44995"
      filterUnits="userSpaceOnUse"
      color-interpolation-filters="sRGB"
    >
      <feFlood flood-opacity="0" result="BackgroundImageFix" />
      <feBlend
        mode="normal"
        in="SourceGraphic"
        in2="BackgroundImageFix"
        result="shape"
      />
      <feGaussianBlur
        stdDeviation="0.5"
        result="effect1_foregroundBlur_16996_4242"
      />
    </filter>
    <filter
      id="filter7_f_16996_4242"
      x="143.225"
      y="48.2245"
      width="6.44998"
      height="6.44995"
      filterUnits="userSpaceOnUse"
      color-interpolation-filters="sRGB"
    >
      <feFlood flood-opacity="0" result="BackgroundImageFix" />
      <feBlend
        mode="normal"
        in="SourceGraphic"
        in2="BackgroundImageFix"
        result="shape"
      />
      <feGaussianBlur
        stdDeviation="0.5"
        result="effect1_foregroundBlur_16996_4242"
      />
    </filter>
    <filter
      id="filter8_f_16996_4242"
      x="173.225"
      y="30.2245"
      width="6.44999"
      height="6.44995"
      filterUnits="userSpaceOnUse"
      color-interpolation-filters="sRGB"
    >
      <feFlood flood-opacity="0" result="BackgroundImageFix" />
      <feBlend
        mode="normal"
        in="SourceGraphic"
        in2="BackgroundImageFix"
        result="shape"
      />
      <feGaussianBlur
        stdDeviation="0.5"
        result="effect1_foregroundBlur_16996_4242"
      />
    </filter>
    <filter
      id="filter9_f_16996_4242"
      x="65.2246"
      y="47.2245"
      width="6.44998"
      height="6.44995"
      filterUnits="userSpaceOnUse"
      color-interpolation-filters="sRGB"
    >
      <feFlood flood-opacity="0" result="BackgroundImageFix" />
      <feBlend
        mode="normal"
        in="SourceGraphic"
        in2="BackgroundImageFix"
        result="shape"
      />
      <feGaussianBlur
        stdDeviation="0.5"
        result="effect1_foregroundBlur_16996_4242"
      />
    </filter>
  </defs>
</svg>
